# xmcd
# 
# Track frame offsets:
#     182
#     19195
#     34155
#     44837
#     59867
#     75077
#     89717
#     106300
#     120852
#     136630
#     151492
# 
# Disc length: 2232
# 
# Revision: 2
# Processed by: cddbd v1.5.2PL0 Copyright (c) Steve Scherf et al.
# Submitted via: BonkEnc v1.0
# 
DISCID=8a08b60b
DTITLE=Various Artist - The Class Of Country
DYEAR=0
DGENRE=
TTITLE0=I Still Believe In You (Desert Rose Band)
TTITLE1=Life As We Knew It (Kathy Mattea)
TTITLE2=It's Only Make Believe (Ronnie McDowell with Conway Twitty)
TTITLE3=(I'd Choose) You Again (The Forester Sisters)
TTITLE4=I Wouldn't Be A Man (Don Williams)
TTITLE5=Burnin' A Hole In My Heart (Skip Ewing)
TTITLE6=I Won't Take Less Than Your Love (Tanya Tucker)
TTITLE7=Shouldn't It Be Easier Than This (Charley Pride)
TTITLE8=Gone But Not Forgotten (Cee Cee Chapman)
TTITLE9=Don't give Candy To A Stranger (Larry Boone)
TTITLE10=She Reminded Me Of You (Mickey Gilley)
EXTD=
EXTT0=
EXTT1=
EXTT2=
EXTT3=
EXTT4=
EXTT5=
EXTT6=
EXTT7=
EXTT8=
EXTT9=
EXTT10=
PLAYORDER=
